<svg width="88" height="63" fill="none" xmlns="http://www.w3.org/2000/svg"><path d="M18.637 1.12V29h-6V1.12h6Zm9.8-.16v1.68h-25.6V.96h25.6Zm0 1.56v4.72l-.4-.04v-.44c0-1.253-.373-2.24-1.12-2.96-.72-.747-1.706-1.133-2.96-1.16v-.12h4.48Zm0-2.28V1.4l-4.88-.44c.587 0 1.2-.04 1.84-.12.667-.08 1.28-.173 1.84-.28.56-.107.96-.213 1.2-.32Zm-15.68 25.84V29h-3.2v-.4h.52c.694 0 1.28-.24 1.76-.72.507-.507.774-1.107.8-1.8h.12Zm5.76 0h.12c.027.693.28 1.293.76 1.8a2.53 2.53 0 0 0 1.8.72h.52v.4h-3.2v-2.92ZM7.277 2.52v.12c-1.226.027-2.213.413-2.96 1.16-.72.72-1.08 1.707-1.08 2.96v.44l-.4.04V2.52h4.44ZM2.837.24c.267.107.667.213 1.2.32.56.107 1.174.2 1.84.28.667.08 1.28.12 1.84.12l-4.88.44V.24Zm54.34.76v28h-6V1h6Zm-18.96 0v28h-6V1h6Zm13.32 13.2v1.72h-13.72V14.2h13.72Zm-19.2 11.88V29h-3.2v-.4h.52c.693 0 1.28-.24 1.76-.72.507-.507.773-1.107.8-1.8h.12Zm0-22.16h-.12a2.47 2.47 0 0 0-.8-1.76 2.331 2.331 0 0 0-1.76-.76h-.52V1h3.2v2.92Zm5.76 22.16h.12c.027.693.28 1.293.76 1.8a2.53 2.53 0 0 0 1.8.72h.52v.4h-3.2v-2.92Zm0-22.16V1h3.2v.4h-.52c-.693 0-1.293.253-1.8.76a2.54 2.54 0 0 0-.76 1.76h-.12Zm13.2 22.16V29h-3.2v-.4h.52c.693 0 1.293-.24 1.8-.72.507-.507.76-1.107.76-1.8h.12Zm0-22.16h-.12c0-.693-.253-1.28-.76-1.76-.507-.507-1.107-.76-1.8-.76h-.52V1h3.2v2.92Zm5.76 22.16h.12c.027.693.28 1.293.76 1.8a2.53 2.53 0 0 0 1.8.72h.52v.4h-3.2v-2.92Zm0-22.16V1h3.2v.4h-.52c-.693 0-1.293.253-1.8.76a2.54 2.54 0 0 0-.76 1.76h-.12ZM71.209 1v28h-6V1h6Zm10.56 26.28.96 1.72H71.09v-1.72h10.68Zm-1.48-12.92v1.68h-9.2v-1.68h9.2ZM82.25 1v1.72H71.09V1h11.16Zm2.44 19.8L82.85 29h-7.84l1.44-1.72c1.334 0 2.507-.253 3.52-.76a7.722 7.722 0 0 0 2.6-2.24c.72-.987 1.294-2.147 1.72-3.48h.4Zm-4.4-4.84v3.84h-.4v-.32c0-.987-.32-1.8-.96-2.44-.64-.64-1.453-.973-2.44-1v-.08h3.8Zm0-5.36v3.84h-3.8v-.08c.987-.027 1.8-.36 2.44-1 .64-.667.96-1.493.96-2.48v-.28h.4Zm1.96-8v4.68h-.4V6.8c0-1.227-.373-2.213-1.12-2.96-.72-.747-1.706-1.133-2.96-1.16V2.6h4.48Zm0-2.32v1.16L77.37 1c.587 0 1.2-.04 1.84-.12.667-.08 1.28-.173 1.84-.28.56-.107.96-.213 1.2-.32Zm-16.92 25.8V29h-3.2v-.4h.52c.694 0 1.28-.24 1.76-.72.507-.507.774-1.107.8-1.8h.12Zm0-22.16h-.12a2.47 2.47 0 0 0-.8-1.76 2.331 2.331 0 0 0-1.76-.76h-.52V1h3.2v2.92ZM31.661 33.44l.32 4.36L20.1 58.4l-.4.72a12.533 12.533 0 0 0-.8 1.68 5.87 5.87 0 0 0-.36 2h-.4l-1.56-3.48 15.08-25.88ZM4.54 59.08V62H.1v-.4h.64c.72 0 1.36-.213 1.92-.64.56-.453.893-1.08 1-1.88h.88Zm1.76.64v.2c0 .427.147.827.44 1.2.32.347.693.52 1.12.52h.6V62H6.02v-2.28h.28Zm.68-26.28h.36l1.4 4L6.06 62h-2.8l3.72-28.56Zm.36 0 13.08 21.48-2.28 7.88L6.3 42.92l1.04-9.48Zm24.68 0L35.82 62h-6.44l-2-18.4 4.28-10.16h.36Zm2.56 25.64h.84c.133.8.48 1.427 1.04 1.88.56.427 1.187.64 1.88.64h.64v.4h-4.4v-2.92Zm-5.44.64h.28V62h-2.44v-.36h.6c.453 0 .827-.173 1.12-.52.293-.373.44-.773.44-1.2v-.2ZM47.846 34v28h-6V34h6Zm10.56 26.28.96 1.72h-11.64v-1.72h10.68Zm-1.48-12.92v1.68h-9.2v-1.68h9.2ZM58.886 34v1.72h-11.16V34h11.16Zm2.44 19.8-1.84 8.2h-7.84l1.44-1.72c1.333 0 2.507-.253 3.52-.76a7.722 7.722 0 0 0 2.6-2.24c.72-.987 1.293-2.147 1.72-3.48h.4Zm-4.4-4.84v3.84h-.4v-.32c0-.987-.32-1.8-.96-2.44-.64-.64-1.453-.973-2.44-1v-.08h3.8Zm0-5.36v3.84h-3.8v-.08c.987-.027 1.8-.36 2.44-1 .64-.667.96-1.493.96-2.48v-.28h.4Zm1.96-8v4.68h-.4v-.48c0-1.227-.373-2.213-1.12-2.96-.72-.747-1.707-1.133-2.96-1.16v-.08h4.48Zm0-2.32v1.16l-4.88-.44c.587 0 1.2-.04 1.84-.12.667-.08 1.28-.173 1.84-.28.56-.107.96-.213 1.2-.32Zm-16.92 25.8V62h-3.2v-.4h.52c.693 0 1.28-.24 1.76-.72.507-.507.773-1.107.8-1.8h.12Zm0-22.16h-.12a2.47 2.47 0 0 0-.8-1.76 2.331 2.331 0 0 0-1.76-.76h-.52V34h3.2v2.92Zm35.253-2.8V62h-6V34.12h6Zm9.8-.16v1.68h-25.6v-1.68h25.6Zm0 1.56v4.72l-.4-.04v-.44c0-1.253-.373-2.24-1.12-2.96-.72-.747-1.706-1.133-2.96-1.16v-.12h4.48Zm0-2.28v1.16l-4.88-.44c.587 0 1.2-.04 1.84-.12.667-.08 1.28-.173 1.84-.28.56-.107.96-.213 1.2-.32ZM71.34 59.08V62h-3.2v-.4h.52c.694 0 1.28-.24 1.76-.72.507-.507.774-1.107.8-1.8h.12Zm5.76 0h.12c.027.693.28 1.293.76 1.8.507.48 1.107.72 1.8.72h.52v.4h-3.2v-2.92ZM65.86 35.52v.12c-1.226.027-2.213.413-2.96 1.16-.72.72-1.08 1.707-1.08 2.96v.44l-.4.04v-4.72h4.44Zm-4.44-2.28c.267.107.667.213 1.2.32.56.107 1.174.2 1.84.28.667.08 1.28.12 1.84.12l-4.88.44v-1.16Z" fill="#fff"/></svg>